<svg width="1200pt" height="1200pt" version="1.1" viewBox="0 0 1200 1200" fill="currentColor"
  xmlns="http://www.w3.org/2000/svg">
  <path
    d="m243.74 543.74c-30.938 0-56.25 25.312-56.25 56.25 0 10.312 8.4375 18.75 18.75 18.75s18.75-8.4375 18.75-18.75 8.4375-18.75 18.75-18.75 18.75 8.4375 18.75 18.75 8.4375 18.75 18.75 18.75 18.75-8.4375 18.75-18.75c0-30.938-25.312-56.25-56.25-56.25z" />
  <path
    d="m1068.4 770.44c-12-261.19-296.63-264.19-299.63-264.19-153.56 0-249.74 43.312-302.06 77.625 1.3125-11.438 2.0625-24.75 2.0625-40.125 0-2.4375 0-4.875-0.375-7.3125 44.812-24 95.25-63.375 143.81-111.75 95.438-95.625 168.94-215.81 123.94-261-27.75-27.562-78.562-9.375-121.13 14.625 9.375-49.5 2.0625-82.5-21.938-96.938-55.5-33-156.37 69-227.44 186.74-34.688 57.75-60.75 115.69-74.25 165-70.688 7.6875-253.87 46.5-253.87 241.87 0 84.188 82.312 150 187.5 150 34.125 0 61.875-6.375 79.875-12.188 10.312 42 40.875 129.37 119.44 160.87 36.188 14.438 56.438 28.312 67.688 38.812h-23.25c-51.75 0-93.75 42-93.75 93.75 0 10.312 8.4375 18.75 18.75 18.75h431.26c1.5 0 3-0.1875 4.5-0.5625 1.6875-0.375 113.62-29.812 183.74-136.87 11.812 4.125 24 6.1875 36.75 6.1875 62.062 0 112.5-50.438 112.5-112.5 0-55.875-40.688-102.19-94.125-110.81zm-358.69-580.13c14.25 14.25-16.688 100.5-124.13 207.74-42.188 42.375-87.375 78.188-126.94 100.88-12.562-25.125-35.625-41.812-60.938-51.938 22.5-40.875 59.625-88.125 104.25-132.56 30-30.188 62.25-57.375 93.188-79.125 0.1875-0.1875 0.375-0.1875 0.5625-0.5625 0.5625-0.375 0.9375-0.5625 1.3125-0.9375 69.562-48.375 105.94-50.25 112.69-43.5zm112.88 897.19h-200.63c7.6875-21.75 28.688-37.5 53.062-37.5h56.25c10.312 0 18.75-8.4375 18.75-18.75s-8.4375-18.75-18.75-18.75c-72.375 0-131.26-58.875-131.26-131.26 0-72.383 58.875-131.26 131.26-131.26 10.312 0 18.75-8.4375 18.75-18.75s-8.4375-18.75-18.75-18.75c-93 0-168.74 75.75-168.74 168.74 0 57.938 29.438 109.12 73.875 139.5-27 12.188-47.25 36.938-53.25 66.75h-167.44c7.6875-21.75 28.688-37.5 53.062-37.5h56.25c10.312 0 18.75-8.4375 18.75-18.75 0-8.4375-5.0625-52.312-105.56-92.438-82.312-33-100.69-152.81-100.88-153.94-0.9375-6-4.5-11.062-9.9375-13.875-5.25-2.8125-11.625-3-16.875-0.375-0.375 0.1875-34.875 16.875-85.5 16.875-84.188 0-150-49.5-150-112.5 0-177.94 179.06-202.5 230.44-205.69h0.75c1.3125-0.1875 2.4375-0.1875 3.5625-0.375 4.875-0.1875 8.0625-0.1875 9-0.1875 1.875 0 21.938 0.1875 44.625 6 1.6875 0.75 3.75 1.3125 5.4375 1.5 26.062 7.3125 53.812 22.312 60.75 52.688 0.1875 0.5625 0.375 1.125 0.5625 1.875v0.375c0.75 3.9375 1.125 8.0625 1.125 12.562 0 58.5-12 78.375-13.125 80.25-0.75 0.75-1.125 1.3125-1.3125 1.5-6.375 7.6875-5.625 19.125 1.875 25.875 7.3125 6.75 18.75 6.5625 25.875-0.5625 0.375-0.375 0.75-0.9375 1.3125-1.6875 6.375-6.9375 99.188-105.38 322.87-105.38 10.688 0 262.5 3.375 262.5 243.74 0 69.938-16.688 124.31-40.688 166.31 0 0-0.1875 0 0 0.1875-0.375 0.375-0.75 0.75-0.9375 1.3125-0.1875 0.375-0.375 0.75-0.375 1.125h-0.1875c-56.25 96.375-150.56 126.56-166.5 131.06z" />
</svg>
