<svg width="1200pt" height="1200pt" version="1.1" viewBox="0 0 1200 1200" fill="currentColor"
  xmlns="http://www.w3.org/2000/svg">
  <path
    d="m1154.3 284.44-66.75-44.438v-2.0625c0-89.812-72.938-162.74-162.74-162.74h-2.625c-43.5 0-84.375 16.875-115.12 47.625l-88.5 88.5h-0.1875l-0.1875 0.375-65.812 65.812-317.81 318-67.688 67.688-215.81 216c-8.625 8.4375-13.312 19.875-13.312 32.062 0 24.938 20.25 45.188 45.188 45.188 23.438 0 45.938-7.125 64.875-20.812l102.19-72.938h260.06l-17.812 42.75c-9.1875 21.938-3.9375 47.625 12.938 63.938l65.625 62.812-7.875 72c-1.125 10.312 6.375 19.5 16.5 20.625h2.0625c9.375 0 17.625-7.125 18.562-16.688l4.875-43.5 57.375 54.938c3.5625 3.5625 8.25 5.25 12.938 5.25 4.875 0 9.9375-1.875 13.5-5.8125 7.125-7.5 6.9375-19.312-0.5625-26.438l-157.13-150.56c-5.8125-5.625-7.5-14.812-4.3125-22.5l23.812-57.188h12c43.312 0 84.938-6.75 124.13-19.125l-25.875 61.875c-9.1875 21.938-3.9375 47.625 12.938 63.938l65.625 62.812-7.875 72c-1.125 10.312 6.375 19.5 16.5 20.625h2.0625c9.375 0 17.625-7.125 18.562-16.688l4.875-43.5 57.375 54.938c3.5625 3.5625 8.25 5.25 12.938 5.25 4.875 0 9.9375-1.875 13.5-5.8125 7.125-7.5 6.9375-19.312-0.5625-26.438l-157.13-150.56c-5.8125-5.625-7.5-14.812-4.3125-22.5l39.75-95.25c139.87-64.688 237.56-205.5 239.81-368.81l85.125-127.87c2.0625-3 3.9375-6 5.625-9.1875h78c8.25 0 15.562-5.4375 18-13.312s-0.75-16.5-7.5-21zm-806.63 350.81c44.062 37.875 99.75 58.5 158.63 58.5 134.44 0 243.74-109.31 243.74-243.74 0-58.875-20.625-114.56-58.5-158.63l39.562-39.75c48.75 54.75 75.188 124.5 75.188 198.37 0 165.37-134.63 300-300 300-39.375 0-77.25-7.5-112.5-21.75-0.5625-0.5625-1.3125-0.9375-2.25-0.9375-30.375-12.562-58.688-30.188-83.625-52.5zm702-388.5s-0.1875 1.6875-0.1875 2.625c-1.3125 15.188-5.625 29.812-12.188 43.312-2.4375 5.0625-5.25 9.75-8.25 14.438l-88.312 132.56c-2.0625 3-3.1875 6.5625-3.1875 10.312 0 153.37-92.625 285.56-224.81 343.69-45.938 20.062-96.75 31.312-150.19 31.312h-259.13l84.188-59.062c37.5 14.25 77.625 21.562 118.88 21.562 186.19 0 337.5-151.31 337.5-337.5 0-83.812-30.375-163.13-85.875-225l75.75-75.75c23.625-23.812 55.125-36.75 88.5-36.75h2.625c69.188 0 125.26 56.062 125.26 125.26 0 3-0.1875 6-0.375 9zm31.875 34.5v-0.1875h0.375z" />
  <path d="m975 225c0 24.984-37.5 24.984-37.5 0s37.5-24.984 37.5 0" />
</svg>
