<svg version="1.1" viewBox="0 0 1200 1200" xmlns="http://www.w3.org/2000/svg" fill="currentColor">
  <path
    d="m412.5 575.02c0 15.141-9.1406 28.828-23.156 34.641s-30.141 2.5781-40.875-8.1562c-10.688-10.688-13.922-26.859-8.1094-40.828 5.8125-14.016 19.453-23.156 34.641-23.156 20.578 0.23438 37.219 16.875 37.5 37.5zm312.52-212.53c75.938 0 137.48-61.547 137.48-137.48-0.14062-13.266-2.2969-26.438-6.5156-39-64.219-40.172-137.02-64.641-212.48-71.484-49.453 34.734-70.453 97.688-51.703 155.11 18.75 57.469 72.797 95.953 133.22 94.875zm125.02 474.98-0.046875 0.046875c-51.047-0.42188-95.906 33.75-109.08 83.062s8.6719 101.3 53.109 126.42c63.047-27.844 119.58-68.531 165.98-119.48-10.5-52.406-56.578-90.094-110.02-90zm237.47-237.47c0.09375 91.547-25.922 181.22-75 258.52-24.797-48.609-69.562-83.953-122.58-96.797s-108.98-1.875-153.28 30c-44.25 31.875-72.375 81.469-77.062 135.84-4.6406 54.328 14.719 108 52.922 146.95-36.234 8.4375-73.312 12.797-110.48 12.984-167.26 0.046875-322.87-85.594-412.26-226.97-89.344-141.37-100.03-318.66-28.266-469.74 71.766-151.08 215.95-254.81 382.03-274.78-33.609 55.078-40.266 122.48-18.141 183.14 22.172 60.609 70.734 107.81 131.95 128.29 61.219 20.438 128.39 11.906 182.53-23.203 54.141-35.156 89.344-93 95.625-157.26 97.078 91.781 152.06 219.47 152.02 353.02zm-600-24.984c0-45.516-27.422-86.531-69.469-103.97-42-17.391-90.422-7.7812-122.58 24.422-32.156 32.156-41.812 80.531-24.375 122.58 17.391 42.047 58.406 69.469 103.92 69.469 62.109 0 112.5-50.391 112.5-112.5zm362.48 24.984c0-20.203-12.188-38.438-30.844-46.172-18.703-7.7812-40.219-3.4688-54.516 10.828s-18.562 35.812-10.828 54.469c7.7344 18.703 25.969 30.891 46.219 30.891 13.266 0 25.969-5.2969 35.344-14.672s14.625-22.078 14.625-35.344z" />
</svg>
