<svg width="1200pt" height="1200pt" version="1.1" viewBox="0 0 1200 1200" fill="currentColor"
  xmlns="http://www.w3.org/2000/svg">
  <path
    d="m1087.5 1031.3h-168.74v-132c125.63-9.5625 225-114.94 225-243 0-134.44-109.31-243.74-243.74-243.74-26.062 0-51.375 4.125-75 12v-143.26c0-60.188-23.438-116.62-65.812-159.19-42.562-42.375-99-65.812-159.19-65.812-124.13 0-225 100.88-225 225v8.625c-18.188-5.625-37.125-8.625-56.25-8.625-103.31 0-187.5 84.188-187.5 187.5 0 8.0625 0.5625 16.125 1.5 24.375-58.312 33.188-95.25 95.625-95.25 163.13 0 103.31 84.188 187.5 187.5 187.5 26.062 0 51.562-5.25 75-15.75v203.26h-187.5c-41.438 0-75 33.562-75 75v18.75c0 10.312 8.4375 18.75 18.75 18.75h1087.5c10.312 0 18.75-8.4375 18.75-18.75v-18.75c0-41.438-33.562-75-75-75zm-468.74 0v-263.26c20.062-1.6875 39.75-6 58.5-12.938 35.438 79.875 112.88 137.26 204 144.19v132zm281.26-168.74c-6.375 0-12.562-0.375-18.75-0.9375v-242.81c0-10.312 8.4375-18.75 18.75-18.75s18.75 8.4375 18.75 18.75v104.62l61.688-61.688c7.3125-7.3125 19.312-7.3125 26.625 0s7.3125 19.312 0 26.625l-88.312 88.312v84.938c-6.1875 0.5625-12.375 0.9375-18.75 0.9375zm-487.5-581.26c0-103.31 84.188-187.5 187.5-187.5 50.062 0 97.312 19.5 132.56 54.938 35.438 35.25 54.938 82.5 54.938 132.56v158.81c-78 40.688-131.26 122.26-131.26 216.19 0 21.938 3 43.312 8.4375 63.562-14.812 5.4375-30.188 9-45.938 10.5v-272.63l88.312-88.312c7.3125-7.3125 7.3125-19.125 0-26.438s-19.125-7.3125-26.438 0l-61.688 61.688v-104.81c0-10.312-8.4375-18.75-18.75-18.75s-18.75 8.4375-18.75 18.75v273.56l-61.688-61.688c-7.3125-7.3125-19.125-7.3125-26.438 0s-7.3125 19.125 0 26.438l88.312 88.312v103.88c-94.5-9.375-168.74-89.625-168.74-186.56v-262.5zm-200.81 313.31c-7.3125-7.3125-7.3125-19.312 0-26.625s19.312-7.3125 26.625 0l61.688 61.688v-142.13c0-10.312 8.4375-18.75 18.75-18.75s18.75 8.4375 18.75 18.75v298.5c-2.8125-1.5-5.625-3.1875-8.25-5.0625-6.375-4.3125-14.625-4.3125-21 0-2.625 1.875-5.4375 3.5625-8.25 5.0625v-103.12zm125.81 233.44c23.438 10.5 48.938 15.75 75 15.75 60.938 0 117-28.875 152.06-77.812 5.625 0.9375 11.062 1.5 16.688 2.0625v263.26h-243.74zm-262.5 278.26c0-20.625 16.875-37.5 37.5-37.5h975c20.625 0 37.5 16.875 37.5 37.5z" />
</svg>
