<svg width="1200pt" height="1200pt" version="1.1" viewBox="0 0 1200 1200" fill="currentColor"
  xmlns="http://www.w3.org/2000/svg">
  <path class="cloud"
    d="m1047 377.44c2.0625-13.688 3-26.812 3-39.938 0-155.06-126.19-281.26-281.26-281.26-118.31 0-222.37 73.688-263.06 182.44-26.25-20.812-58.875-32.438-93.188-32.438-82.688 0-150 67.312-150 150v0.9375c-6.1875-0.5625-12.562-0.9375-18.75-0.9375-113.81 0-206.26 92.438-206.26 206.26s92.438 206.26 206.26 206.26h432.74c9.75-66.75 67.125-143.06 85.875-166.5 10.5-13.125 26.438-20.625 43.875-20.625s33.375 7.5 43.875 20.812c18.75 23.25 76.125 99.562 85.875 166.31h20.25c113.81 0 206.26-92.438 206.26-206.26 0-79.312-44.812-150.37-115.5-185.06zm-109.5-59.25c-1.3125 0.375-2.8125 0.5625-4.125 0.5625-8.625 0-16.312-5.8125-18.188-14.625-12.938-55.875-57.188-100.12-113.06-113.06-10.125-2.25-16.5-12.375-14.062-22.312 2.25-10.125 12.375-16.5 22.312-14.062 69.938 15.938 125.26 71.25 141.19 141.19 2.4375 10.125-3.9375 20.062-14.062 22.312z" />
  <path fill="steelblue"
    d="m791.63 625.87c-8.0625 10.125-79.125 100.69-79.125 161.63 0 51.75 42 93.75 93.75 93.75s93.75-42 93.75-93.75c0-61.125-71.062-151.5-79.125-161.63-7.125-8.8125-22.125-8.8125-29.25 0zm14.625 217.87c-30.938 0-56.25-25.312-56.25-56.25 0-32.625 33-86.25 56.25-118.69 23.25 32.625 56.25 86.062 56.25 118.69s-25.312 56.25-56.25 56.25z" />
  <path fill="lightskyblue"
    d="m706.87 963.74c-5.25 6.9375-50.625 68.812-50.625 111.19 0 37.875 29.438 68.812 65.625 68.812s65.625-30.75 65.625-68.812c0-42.562-45.375-104.25-50.625-111.19-7.125-9.375-22.875-9.375-30 0zm15 142.5c-15.562 0-28.125-14.062-28.125-31.312s14.062-44.25 28.125-66.75c14.062 22.5 28.125 50.25 28.125 66.75s-12.562 31.312-28.125 31.312z" />
  <path fill="cornflowerblue"
    d="m294.37 926.26c-5.25 6.9375-50.625 68.812-50.625 111.19 0 37.875 29.438 68.812 65.625 68.812s65.625-30.75 65.625-68.812c0-42.562-45.375-104.25-50.625-111.19-7.125-9.375-22.875-9.375-30 0zm15 142.5c-15.562 0-28.125-14.062-28.125-31.312s14.062-44.25 28.125-66.75c14.062 22.5 28.125 50.25 28.125 66.75s-12.562 31.312-28.125 31.312z" />
  <path fill="steelblue"
    d="m500.63 813.74c-5.25 6.9375-50.625 68.812-50.625 111.19 0 37.875 29.438 68.812 65.625 68.812s65.625-30.75 65.625-68.812c0-42.562-45.375-104.25-50.625-111.19-7.125-9.375-22.875-9.375-30 0zm15 142.5c-15.562 0-28.125-14.062-28.125-31.312s14.062-44.25 28.125-66.75c14.062 22.5 28.125 50.25 28.125 66.75s-12.562 31.312-28.125 31.312z" />
</svg>
