<svg version="1.1" viewBox="0 0 1200 1200" xmlns="http://www.w3.org/2000/svg" fill="currentColor">
  <path
    d="m887.48 600c0 76.266-30.281 149.39-84.188 203.29s-127.03 84.188-203.29 84.188c-76.262 0-149.39-30.281-203.29-84.188s-84.188-127.03-84.188-203.29 30.281-149.39 84.188-203.29 127.03-84.188 203.29-84.188c76.219 0.09375 149.26 30.469 203.16 84.328 53.859 53.906 84.234 126.94 84.328 203.16zm-597-256.5c7.0312 7.0781 16.547 11.062 26.531 11.016 9.9844 0.1875 19.594-3.7969 26.484-11.016 7.125-6.9844 11.156-16.5 11.156-26.484s-4.0312-19.547-11.156-26.531l-35.016-35.016v0.046875c-14.766-13.781-37.781-13.359-52.078 0.89062-14.25 14.297-14.672 37.312-0.89062 52.078zm619.03 513c-14.812-13.781-37.828-13.359-52.078 0.9375-14.297 14.25-14.719 37.266-0.9375 52.078l35.016 35.016v-0.046875c6.9844 7.0781 16.547 11.062 26.484 11.016 9.9844 0.23438 19.594-3.75 26.484-11.016 7.1719-6.9375 11.203-16.5 11.203-26.484s-4.0312-19.547-11.203-26.484zm-618.98 0-35.016 35.016c-7.1719 6.9375-11.203 16.5-11.203 26.484s4.0312 19.547 11.203 26.484c6.8906 7.2656 16.5 11.25 26.484 11.016 9.9375 0.046875 19.5-3.9375 26.484-11.016l35.016-35.016v0.046875c13.781-14.812 13.359-37.828-0.9375-52.078-14.25-14.297-37.266-14.719-52.078-0.9375zm600-600-35.016 35.016c-7.1719 6.9375-11.203 16.5-11.203 26.484s4.0312 19.547 11.203 26.484c6.8906 7.2656 16.5 11.25 26.484 11.016 9.9375 0.046875 19.5-3.9375 26.484-11.016l35.016-35.016v0.046875c13.781-14.812 13.359-37.828-0.9375-52.078-14.25-14.297-37.266-14.719-52.078-0.9375zm-690.52 306h-50.016c-20.719 0-37.5 16.781-37.5 37.5s16.781 37.5 37.5 37.5h50.016c20.672 0 37.5-16.781 37.5-37.5s-16.828-37.5-37.5-37.5zm849.98 0h-50.016c-20.672 0-37.5 16.781-37.5 37.5s16.828 37.5 37.5 37.5h50.016c20.719 0 37.5-16.781 37.5-37.5s-16.781-37.5-37.5-37.5zm-450 399.98c-20.578 0.28125-37.219 16.922-37.5 37.5v50.016c0 20.719 16.781 37.5 37.5 37.5s37.5-16.781 37.5-37.5v-50.016c-0.28125-20.578-16.922-37.219-37.5-37.5zm0-725.02v0.046875c20.578-0.28125 37.219-16.922 37.5-37.5v-50.016c0-20.719-16.781-37.5-37.5-37.5s-37.5 16.781-37.5 37.5v50.016c0.28125 20.578 16.922 37.219 37.5 37.5z" />
</svg>
